# xmcd CD database file
#
# Track frame offsets:
#	150
#	11625
#	24557
#	37104
#	48988
#	62811
#	75062
#	87219
#	98315
#	109661
#	119782
#	131469
#	147705
#	159583
#	178072
#	188341
#	200101
#
# Disc length: 2803 seconds
#
# Revision: 0
# Processed by: cddbd v1.4PL0 Copyright (c) Steve Scherf et al.
# Submitted via: CDex 1.40Release
#
DISCID=e00af111
DTITLE=John Lee Hooker - The Blues Legend
DYEAR=1900
DGENRE=Blues
TTITLE0=Boom Boom
TTITLE1=Hobo blues
TTITLE2=I'm In The Mood
TTITLE3=Boogie Chillun
TTITLE4=Every Night
TTITLE5=Crawlin' Kingsnake
TTITLE6=Whiskey and Wimmen
TTITLE7=No Shoes
TTITLE8=This Is Hip
TTITLE9=Dimples
TTITLE10=Will Circl be Unbroken
TTITLE11=It Serves Me Right To Suffer
TTITLE12=Tittle Wheel
TTITLE13=Sugar Mama
TTITLE14=Maudie
TTITLE15=Solid Sender
TTITLE16=Big Legs, Tight Skirt
EXTD=ID3G: 0
EXTT0=
EXTT1=
EXTT2=
EXTT3=
EXTT4=
EXTT5=
EXTT6=
EXTT7=
EXTT8=
EXTT9=
EXTT10=
EXTT11=
EXTT12=
EXTT13=
EXTT14=
EXTT15=
EXTT16=
PLAYORDER=
